<?xml version="1.0" encoding="UTF-8" standalone="no"?>
<!-- Created with Inkscape (http://www.inkscape.org/) -->

<svg
   xmlns:dc="http://purl.org/dc/elements/1.1/"
   xmlns:cc="http://creativecommons.org/ns#"
   xmlns:rdf="http://www.w3.org/1999/02/22-rdf-syntax-ns#"
   xmlns:svg="http://www.w3.org/2000/svg"
   xmlns="http://www.w3.org/2000/svg"
   xmlns:sodipodi="http://sodipodi.sourceforge.net/DTD/sodipodi-0.dtd"
   xmlns:inkscape="http://www.inkscape.org/namespaces/inkscape"
   width="209.34084mm"
   height="279.74057mm"
   viewBox="0 0 209.34084 279.74057"
   version="1.1"
   id="svg8"
   sodipodi:docname="female.svg"
   inkscape:version="0.92.1 r15371">
  <defs
     id="defs2" />
  <sodipodi:namedview
     id="base"
     pagecolor="#ffffff"
     bordercolor="#666666"
     borderopacity="1.0"
     inkscape:pageopacity="0.0"
     inkscape:pageshadow="2"
     inkscape:zoom="0.49497475"
     inkscape:cx="204.9454"
     inkscape:cy="428.50684"
     inkscape:document-units="mm"
     inkscape:current-layer="layer1"
     showgrid="false"
     inkscape:window-width="1366"
     inkscape:window-height="747"
     inkscape:window-x="-3"
     inkscape:window-y="-2"
     inkscape:window-maximized="1"
     fit-margin-top="0"
     fit-margin-left="0"
     fit-margin-right="0"
     fit-margin-bottom="0" />
  <metadata
     id="metadata5">
    <rdf:RDF>
      <cc:Work
         rdf:about="">
        <dc:format>image/svg+xml</dc:format>
        <dc:type
           rdf:resource="http://purl.org/dc/dcmitype/StillImage" />
        <dc:title></dc:title>
      </cc:Work>
    </rdf:RDF>
  </metadata>
  <g
     inkscape:label="Layer 1"
     inkscape:groupmode="layer"
     id="layer1"
     transform="translate(-0.60100931,0.2900751)">
    <path
       style="fill:#000000;stroke-width:0.39230776"
       d="m 102.72765,279.32182 c -1.46245,-0.41302 -4.024851,-2.44868 -4.957389,-3.93833 l -0.929202,-1.4843 -0.103644,-52.47116 -0.103643,-52.47116 H 52.720161 c -30.644618,0 -44.5259075,-0.13138 -45.9401133,-0.43462 -3.9621869,-0.84974 -6.60322474,-4.57187 -6.12271387,-8.62902 0.30367954,-2.56407 1.25696127,-4.16615 3.35739297,-5.64249 l 1.6821958,-1.18234 45.4784934,-0.1029 45.478476,-0.10291 -0.102605,-15.54919 -0.102606,-15.54918 -4.903844,-1.28998 C 77.860413,116.87445 70.545488,112.88773 61.773759,104.24865 52.480981,95.096379 46.871888,83.994211 44.815983,70.683802 44.104105,66.074969 44.207926,55.004378 45.005462,50.479952 47.354904,37.151407 52.903295,26.725704 62.773183,17.093518 70.408676,9.6419295 77.050422,5.5654294 86.738172,2.3845351 c 11.169969,-3.6675625 26.365258,-3.5542769 38.152888,0.284441 3.97475,1.2944005 10.84211,4.7700897 14.58562,7.3820249 4.2462,2.962673 11.48313,9.856776 14.43378,13.75003 9.35379,12.341909 13.51712,26.842118 12.16575,42.371231 -1.37983,15.855766 -6.84523,27.329217 -18.60059,39.047978 -7.44653,7.42334 -14.26995,11.20414 -26.31149,14.57892 -3.45231,0.96755 -6.4976,1.82601 -6.76731,1.90768 -0.38152,0.11551 -0.49039,3.58997 -0.49039,15.65213 v 15.50362 l 45.47401,0.10291 45.47398,0.1029 1.6822,1.18234 c 2.02335,1.42215 3.0091,3.00043 3.32824,5.32887 0.57034,4.16109 -2.08669,8.09038 -6.04117,8.93383 -1.47527,0.31467 -14.83015,0.44343 -45.99249,0.44343 h -43.91357 l -0.10364,52.47116 -0.10365,52.47116 -0.9292,1.4843 c -1.51122,2.41404 -4.01571,3.88641 -6.8622,4.03427 -1.32472,0.0688 -2.76078,0.0256 -3.19124,-0.0959 z m 12.81093,-175.06341 c 8.4174,-2.16942 14.67851,-5.798252 20.86492,-12.092901 8.60865,-8.759279 12.81253,-18.881395 12.80939,-30.842384 -0.003,-12.82101 -3.89189,-22.208071 -12.91066,-31.166917 -9.76037,-9.695513 -21.44351,-13.96345 -35.4218,-12.939831 -8.080574,0.591734 -14.579903,3.108273 -21.554198,8.345783 -8.296527,6.23048 -14.260468,14.845548 -16.70663,24.133147 -1.204354,4.572704 -1.633191,13.09182 -0.912151,18.119958 1.897653,13.232935 10.934999,25.947929 23.206019,32.649445 3.87604,2.11681 10.159838,4.10097 14.869887,4.69529 3.244413,0.40937 12.787553,-0.1367 15.755223,-0.90159 z"
       id="path598"
       inkscape:connector-curvature="0" />
  </g>
</svg>
