<?xml version="1.0" encoding="UTF-8" standalone="no"?>
<!-- Created with Inkscape (http://www.inkscape.org/) -->

<svg
   xmlns:dc="http://purl.org/dc/elements/1.1/"
   xmlns:cc="http://creativecommons.org/ns#"
   xmlns:rdf="http://www.w3.org/1999/02/22-rdf-syntax-ns#"
   xmlns:svg="http://www.w3.org/2000/svg"
   xmlns="http://www.w3.org/2000/svg"
   xmlns:sodipodi="http://sodipodi.sourceforge.net/DTD/sodipodi-0.dtd"
   xmlns:inkscape="http://www.inkscape.org/namespaces/inkscape"
   width="209.36688mm"
   height="259.11313mm"
   viewBox="0 0 209.36688 259.11313"
   version="1.1"
   id="svg8"
   sodipodi:docname="male.svg"
   inkscape:version="0.92.1 r15371">
  <defs
     id="defs2" />
  <sodipodi:namedview
     id="base"
     pagecolor="#ffffff"
     bordercolor="#666666"
     borderopacity="1.0"
     inkscape:pageopacity="0.0"
     inkscape:pageshadow="2"
     inkscape:zoom="0.49497475"
     inkscape:cx="206.32805"
     inkscape:cy="512.78265"
     inkscape:document-units="mm"
     inkscape:current-layer="layer1"
     showgrid="false"
     inkscape:window-width="1366"
     inkscape:window-height="747"
     inkscape:window-x="-3"
     inkscape:window-y="-2"
     inkscape:window-maximized="1"
     fit-margin-top="0"
     fit-margin-left="0"
     fit-margin-right="0"
     fit-margin-bottom="0" />
  <metadata
     id="metadata5">
    <rdf:RDF>
      <cc:Work
         rdf:about="">
        <dc:format>image/svg+xml</dc:format>
        <dc:type
           rdf:resource="http://purl.org/dc/dcmitype/StillImage" />
        <dc:title></dc:title>
      </cc:Work>
    </rdf:RDF>
  </metadata>
  <g
     inkscape:label="Layer 1"
     inkscape:groupmode="layer"
     id="layer1"
     transform="translate(-0.23518275,0.12777096)">
    <path
       style="fill:#000000;stroke-width:0.38860178"
       d="M 54.537502,258.79514 C 41.194506,257.79493 29.083256,252.19545 18.85115,242.296 7.2136154,231.03684 1.7667675,219.61286 0.45571939,203.71426 -0.64932449,190.31382 2.4101892,177.67129 9.3690223,166.88255 13.083589,161.12361 19.371257,154.45167 25.003767,150.29231 c 9.870122,-7.28869 19.580556,-10.57959 32.684354,-11.07687 8.09074,-0.30702 15.127871,0.80182 22.914804,3.61073 1.528318,0.55129 2.923568,0.85594 3.100565,0.67701 0.176982,-0.17894 17.13566,-27.95492 37.68592,-61.72442 20.55028,-33.769505 37.5231,-61.565211 37.71735,-61.768263 0.88656,-0.926622 0.0734,-0.842596 -3.62995,0.375129 -5.26291,1.730488 -67.330335,21.920032 -78.0118,25.376001 -9.180097,2.9702 -11.544093,3.450196 -13.886117,2.819552 -3.348619,-0.901683 -4.766767,-3.093618 -4.766767,-7.367684 0,-3.123021 0.799166,-4.84057 2.95472,-6.350235 1.125018,-0.787915 15.024707,-5.2121 54.080674,-17.213587 28.91158,-8.8842215 53.9181,-16.5102256 55.57006,-16.9466737 1.71515,-0.45313291 4.33713,-0.80893301 6.11237,-0.82943649 5.72071,-0.0660929 9.12107,2.32096219 11.22039,7.87655499 0.36343,0.9617838 5.25926,27.2982902 10.87962,58.5255542 8.96722,49.822728 10.18534,57.061018 9.94528,59.096958 -0.5366,4.55097 -2.39447,6.73791 -5.9764,7.03495 -3.96848,0.3291 -6.83599,-1.17133 -8.33559,-4.36161 -0.53331,-1.13456 -4.09961,-18.62206 -10.36233,-50.812095 -5.25203,-26.995189 -9.67111,-49.373451 -9.82017,-49.729457 -0.19249,-0.459757 -11.48437,17.592211 -38.97586,62.309476 l -38.704852,62.956746 3.870942,3.75285 c 8.54963,8.28872 14.07002,17.66603 16.75248,28.45684 2.04258,8.21676 1.90837,20.90249 -0.31122,29.41667 -3.66557,14.06082 -13.02825,26.77138 -26.063268,35.38289 -10.429562,6.89024 -23.406359,10.04261 -37.11147,9.01525 z m 15.126255,-17.29939 c 8.543947,-2.07804 15.070841,-5.84668 21.538604,-12.43647 4.449285,-4.53322 7.483184,-9.41915 9.893649,-15.93313 2.62677,-7.09854 2.89635,-18.55748 0.62505,-26.56886 -4.407309,-15.5455 -18.770721,-28.24743 -34.748297,-30.72875 -4.197501,-0.65188 -12.125462,-0.56077 -15.714571,0.18058 -10.036045,2.073 -18.90068,7.64556 -25.642434,16.11955 -7.564479,9.50811 -10.636844,21.8165 -8.543212,34.22563 2.788342,16.52681 15.16973,30.23339 31.247332,34.59176 5.877333,1.59325 15.983099,1.85351 21.343879,0.54969 z"
       id="path600"
       inkscape:connector-curvature="0" />
  </g>
</svg>
