<?xml version="1.0" encoding="UTF-8" standalone="no"?>
<!-- Created with Inkscape (http://www.inkscape.org/) -->

<svg
   xmlns:dc="http://purl.org/dc/elements/1.1/"
   xmlns:cc="http://creativecommons.org/ns#"
   xmlns:rdf="http://www.w3.org/1999/02/22-rdf-syntax-ns#"
   xmlns:svg="http://www.w3.org/2000/svg"
   xmlns="http://www.w3.org/2000/svg"
   xmlns:sodipodi="http://sodipodi.sourceforge.net/DTD/sodipodi-0.dtd"
   xmlns:inkscape="http://www.inkscape.org/namespaces/inkscape"
   width="208.55159mm"
   height="286.34686mm"
   viewBox="0 0 208.55159 286.34686"
   version="1.1"
   id="svg8"
   sodipodi:docname="unknown.svg"
   inkscape:version="0.92.1 r15371">
  <defs
     id="defs2" />
  <sodipodi:namedview
     id="base"
     pagecolor="#ffffff"
     bordercolor="#666666"
     borderopacity="1.0"
     inkscape:pageopacity="0.0"
     inkscape:pageshadow="2"
     inkscape:zoom="0.32"
     inkscape:cx="434.93387"
     inkscape:cy="731.00341"
     inkscape:document-units="mm"
     inkscape:current-layer="layer1"
     showgrid="false"
     inkscape:window-width="1366"
     inkscape:window-height="747"
     inkscape:window-x="-3"
     inkscape:window-y="-2"
     inkscape:window-maximized="1"
     fit-margin-top="0"
     fit-margin-left="0"
     fit-margin-right="0"
     fit-margin-bottom="0" />
  <metadata
     id="metadata5">
    <rdf:RDF>
      <cc:Work
         rdf:about="">
        <dc:format>image/svg+xml</dc:format>
        <dc:type
           rdf:resource="http://purl.org/dc/dcmitype/StillImage" />
        <dc:title />
      </cc:Work>
    </rdf:RDF>
  </metadata>
  <g
     inkscape:label="Layer 1"
     inkscape:groupmode="layer"
     id="layer1"
     transform="translate(-1.6083772,0.1812828)">
    <path
       style="fill:#000000;stroke-width:0.39082873"
       d="m 114.48926,135.8017 h 43.74806 c 30.52909,0 44.35804,0.13089 45.76693,0.43299 3.94723,0.84653 6.57831,4.55462 6.09961,8.59647 -0.30252,2.5544 -1.25221,4.15045 -3.34472,5.62122 l -1.67587,1.17789 -45.30702,0.10249 -45.30704,0.10253 c 0.13196,1.99127 0.20452,12.73615 0.20452,12.73615 l 4.88535,1.28513 c 13.63284,3.58621 20.9202,7.5579 29.65885,16.16441 9.25774,9.11777 14.84569,20.17808 16.89383,33.43832 0.70921,4.59146 0.60576,15.62031 -0.18876,20.12768 -2.34058,13.27829 -7.86804,23.6647 -17.70073,33.26057 -7.60671,7.42349 -14.22342,11.48461 -23.87466,14.65352 -11.12785,3.65372 -26.265834,3.54087 -38.009033,-0.28338 -3.959759,-1.28951 -10.801231,-4.75211 -14.53063,-7.35418 -4.230181,-2.9515 -11.439832,-9.81962 -14.379368,-13.6982 -9.318512,-12.29538 -13.466156,-26.74093 -12.119883,-42.21148 1.374628,-15.79598 6.81943,-27.22619 18.53047,-38.90077 7.418462,-7.39536 14.216159,-11.16191 26.212292,-14.52397 3.439294,-0.9639 6.473111,-1.81911 6.741795,-1.90048 0.706437,-0.63709 0.488544,1.00747 0.488544,-12.79332 L 51.979168,151.73276 6.6766295,151.63027 5.0007571,150.45238 C 2.9850418,149.0356 2.0030135,147.46327 1.6850672,145.1436 1.1168759,140.9982 3.7638924,137.08373 7.7034567,136.24345 9.1731698,135.92997 22.477692,135.8017 53.522546,135.8017 h 43.74802 z m -18.833524,46.20955 c -8.385673,2.16126 -14.623192,5.77642 -20.786259,12.04734 -8.576192,8.72624 -12.764227,18.81018 -12.761099,30.7261 0.0037,12.77266 3.877223,22.12434 12.861984,31.04941 9.723569,9.65896 21.362663,13.91082 35.288258,12.89105 8.05011,-0.58952 14.52493,-3.09656 21.47293,-8.31433 8.26526,-6.20699 14.20671,-14.78957 16.64365,-24.04215 1.19982,-4.55548 1.62703,-13.04246 0.90871,-18.05166 -1.8905,-13.18304 -10.89377,-25.85009 -23.11853,-32.52635 -3.86142,-2.10882 -10.12153,-4.08552 -14.81382,-4.67758 -3.23218,-0.40784 -12.739349,0.1361 -15.695824,0.89817 z"
       id="path598"
       inkscape:connector-curvature="0"
       sodipodi:nodetypes="cscccccccccccsscscccccccccccscccscsccscccc" />
    <path
       style="fill:#000000;stroke-width:0.34448195"
       d="m 68.893964,67.949646 c 2.416119,-4.275669 5.056966,-9.675755 9.994227,-18.316713 4.243278,-7.426404 5.506033,-9.152099 7.417357,-10.136818 2.732795,-1.407954 4.970631,-0.817975 7.521926,1.983078 1.864227,2.046723 2.365721,3.649378 1.854218,5.92546 -0.26706,1.187889 -11.053242,26.972088 -25.167178,43.563314 0.0844,-2.759833 1.619678,-1.530346 0,0 0,0 -2.931233,10.306693 -19.583391,-2.871238 C 15.313843,60.797582 10.194803,56.781003 9.1368269,55.303426 6.771908,52.000583 6.6840409,49.458319 8.854179,47.125512 c 2.404346,-2.584585 5.179251,-3.312945 8.066403,-2.117316 1.026731,0.425259 13.80271,9.757023 37.122157,27.11477 15.582061,13.35671 1.989551,23.126683 14.851225,-4.17332 z"
       id="path600"
       inkscape:connector-curvature="0"
       sodipodi:nodetypes="csscscccccccc" />
    <path
       style="fill:#000000;stroke-width:1.95731544"
       d="m 101.01368,157.22589 c -2.508664,-1.46112 -3.425296,-4.5069 -3.425296,-11.38087 0,-12.68204 10.737796,-29.33922 26.561666,-41.20442 15.50165,-11.623447 22.1892,-18.960459 26.5591,-29.138171 C 160.43,52.862141 150.9643,29.13207 129.14139,21.432435 116.89414,17.11143 94.17084,17.500247 83.161693,22.219342 c -18.003729,7.7173 -26.234115,28.8384 -17.113531,43.917122 6.216226,10.277089 6.712325,14.29366 2.309424,18.696567 -5.511168,5.51117 -12.233188,2.219253 -18.981166,-9.2953 C 45.051793,68.158256 44.204655,64.31055 44.123362,51.67657 44.039762,38.732768 44.771383,35.3421 49.322767,27.575869 59.888223,9.5474087 80.984691,-0.1812828 109.51394,-0.1812828 c 17.27511,0 19.78636,0.5074721 31.41126,6.349836 15.65474,7.8672538 23.70641,16.0570838 28.94718,29.4437048 5.2143,13.319019 5.19573,28.394934 -0.0518,42.107654 -5.22665,13.657905 -11.92134,21.699071 -32.09296,38.547178 -16.15117,13.49014 -24.4807,25.33561 -24.4807,34.81412 0,2.31355 -1.7037,5.11818 -3.78602,6.23257 -4.50582,2.41144 -4.14978,2.41513 -8.44723,-0.0882 z"
       id="path102"
       inkscape:connector-curvature="0"
       sodipodi:nodetypes="cscsccsscccscsccsccc" />
  </g>
</svg>
